<svg width="24" height="24" viewBox="0 0 24 24" fill="none" xmlns="http://www.w3.org/2000/svg">
<path d="M10.8903 3C13.4147 3 15.308 3.29974 16.5702 3.99915C17.9376 4.69855 18.5687 5.89753 18.5687 7.59608C18.5687 8.59522 18.2531 9.49446 17.8324 10.1939C17.5939 10.5355 17.2841 10.827 16.9223 11.0505C16.5605 11.2739 16.1542 11.4244 15.7287 11.4927C16.33 11.6262 16.9004 11.8632 17.4117 12.1922C17.8324 12.4919 18.2531 12.9915 18.5687 13.491C18.8979 14.2148 19.042 15.0023 18.9894 15.7891C19.0266 16.5109 18.8841 17.2309 18.5734 17.8906C18.2627 18.5503 17.7926 19.1311 17.2013 19.5858C15.704 20.6017 13.8836 21.0957 12.0473 20.9846H5V3H10.8903ZM11.311 10.0939C12.468 10.0939 13.3095 9.99403 13.7302 9.59437C14.2562 9.29463 14.4665 8.69514 14.4665 8.09565C14.4665 7.39625 14.151 6.89667 13.6251 6.59693C13.0991 6.29718 12.2577 6.09736 11.1006 6.09736H8.99698V10.0939H11.311ZM8.99698 13.0914V17.9872H11.6266C12.7836 17.9872 13.7302 17.6875 14.151 17.2878C14.6769 16.7882 14.8873 16.2887 14.8873 15.4893C14.8998 15.1873 14.84 14.8865 14.7125 14.6096C14.585 14.3327 14.393 14.0869 14.151 13.8907C13.6251 13.491 12.7836 13.2912 11.5214 13.2912H8.89179L8.99698 13.0914Z" fill="black"/>
</svg>
