<svg width="24" height="24" viewBox="0 0 24 24" fill="none" xmlns="http://www.w3.org/2000/svg">
<path d="M18 19.5C17.32 19.5 16.715 19.382 16.185 19.146C15.6715 18.9207 15.2337 18.5526 14.9235 18.0855C14.6185 17.6135 14.466 17.0285 14.466 16.3305C14.466 15.7395 14.5745 15.243 14.7915 14.841C15.0025 14.4494 15.3071 14.116 15.678 13.8705C16.052 13.6255 16.477 13.441 16.953 13.317C17.433 13.192 17.938 13.1045 18.468 13.0545C19.086 12.9905 19.585 12.9305 19.965 12.8745C20.344 12.8145 20.619 12.727 20.79 12.612C21.0465 12.4395 21.0465 12.3255 21.0465 12.099V12.057C21.0465 11.619 20.908 11.2795 20.631 11.0385C20.358 10.7985 19.97 10.6785 19.467 10.6785C18.936 10.6785 18.5135 10.7965 18.1995 11.0325C18.0697 11.127 17.9532 11.2385 17.853 11.364C17.6325 11.6445 17.3205 11.886 16.965 11.856L15.6975 11.754C15.246 11.7165 14.9235 11.286 15.1095 10.8735C15.2517 10.56 15.4381 10.2685 15.663 10.008C16.069 9.53299 16.594 9.16799 17.238 8.91299C17.884 8.65399 18.634 8.52399 19.488 8.52299C20.0596 8.52094 20.6292 8.59151 21.183 8.73299C21.728 8.87199 22.2105 9.08649 22.6305 9.37649C23.0545 9.66649 23.3895 10.0405 23.6355 10.4985C23.8805 10.9495 24.003 11.4945 24.003 12.1335V18.5535C24.003 18.7524 23.924 18.9432 23.7833 19.0838C23.6427 19.2245 23.4519 19.3035 23.253 19.3035H21.954C21.7551 19.3035 21.5643 19.2245 21.4237 19.0838C21.283 18.9432 21.204 18.7524 21.204 18.5535V17.8275H21.1215C20.9499 18.1607 20.7174 18.4589 20.436 18.7065C20.15 18.9555 19.806 19.152 19.404 19.296C18.9543 19.4401 18.4842 19.51 18.012 19.503L18 19.5ZM18.8445 17.46C19.2785 17.46 19.662 17.3745 19.995 17.2035C20.328 17.0275 20.589 16.792 20.778 16.497C21.0615 16.0545 21.0615 15.867 21.0615 15.492V14.3625C20.9695 14.4225 20.8425 14.478 20.6805 14.529C20.5235 14.575 20.3455 14.619 20.1465 14.661C19.9484 14.6982 19.7499 14.7332 19.551 14.766L19.011 14.841C18.6992 14.882 18.3941 14.9637 18.1035 15.084C17.8675 15.1803 17.66 15.3352 17.5005 15.534C17.3523 15.7339 17.2767 15.9783 17.286 16.227C17.286 16.629 17.4315 16.936 17.7225 17.148C18.0175 17.356 18.3915 17.46 18.8445 17.46Z" fill="black"/>
<path fill-rule="evenodd" clip-rule="evenodd" d="M8.20499 2.01003C8.15318 1.86171 8.05619 1.73336 7.92765 1.64302C7.79912 1.55268 7.6455 1.50489 7.4884 1.50638C7.3313 1.50787 7.17861 1.55856 7.05181 1.65132C6.92501 1.74408 6.83047 1.87425 6.78149 2.02353L1.86149 17.4735C1.81316 17.625 1.71796 17.7572 1.58962 17.851C1.46129 17.9448 1.30646 17.9954 1.14749 17.9955H0.743988C0.545076 17.9955 0.35431 18.0745 0.213658 18.2152C0.0730057 18.3559 -0.00601196 18.5466 -0.00601196 18.7455C-0.00601196 18.9444 0.0730057 19.1352 0.213658 19.2759C0.35431 19.4165 0.545076 19.4955 0.743988 19.4955H4.49399C4.6929 19.4955 4.88367 19.4165 5.02432 19.2759C5.16497 19.1352 5.24399 18.9444 5.24399 18.7455C5.24399 18.5466 5.16497 18.3559 5.02432 18.2152C4.88367 18.0745 4.6929 17.9955 4.49399 17.9955H3.78299C3.724 17.9955 3.66585 17.9815 3.61327 17.9548C3.56068 17.9281 3.51515 17.8893 3.48037 17.8416C3.44558 17.794 3.42253 17.7388 3.41308 17.6806C3.40363 17.6224 3.40805 17.5627 3.42599 17.5065L4.05899 15.5115C4.10732 15.3601 4.20252 15.2279 4.33085 15.1341C4.45919 15.0403 4.61401 14.9896 4.77299 14.9895H9.06299C9.22159 14.9894 9.37614 15.0396 9.50443 15.1329C9.63271 15.2261 9.72814 15.3576 9.77699 15.5085L10.422 17.5035C10.4402 17.5598 10.4449 17.6196 10.4355 17.678C10.4262 17.7365 10.4032 17.7919 10.3684 17.8397C10.3336 17.8875 10.288 17.9265 10.2352 17.9533C10.1825 17.9801 10.1242 17.9941 10.065 17.994H9.73649C9.53758 17.994 9.34681 18.073 9.20616 18.2137C9.06551 18.3544 8.98649 18.5451 8.98649 18.744C8.98649 18.9429 9.06551 19.1337 9.20616 19.2744C9.34681 19.415 9.53758 19.494 9.73649 19.494H14.2365C14.4354 19.494 14.6262 19.415 14.7668 19.2744C14.9075 19.1337 14.9865 18.9429 14.9865 18.744C14.9865 18.5451 14.9075 18.3544 14.7668 18.2137C14.6262 18.073 14.4354 17.994 14.2365 17.994H14.1855C14.029 17.9939 13.8764 17.9448 13.7491 17.8536C13.6219 17.7624 13.5264 17.6337 13.476 17.4855L8.19599 2.03553L8.20499 2.01003ZM8.76899 13.5C8.81035 13.4999 8.85109 13.49 8.8879 13.4712C8.92472 13.4524 8.95656 13.4251 8.98083 13.3916C9.0051 13.3581 9.02112 13.3194 9.02758 13.2785C9.03404 13.2377 9.03075 13.1959 9.01799 13.1565L7.14299 7.38153C7.12591 7.32874 7.09253 7.28271 7.04766 7.25007C7.00279 7.21743 6.94873 7.19985 6.89324 7.19985C6.83775 7.19985 6.78369 7.21743 6.73882 7.25007C6.69395 7.28271 6.66057 7.32874 6.64349 7.38153L4.81349 13.1565C4.80069 13.196 4.79742 13.2379 4.80396 13.2789C4.81049 13.3199 4.82664 13.3587 4.85109 13.3922C4.87553 13.4257 4.90757 13.453 4.94457 13.4717C4.98158 13.4905 5.0225 13.5002 5.06399 13.5H8.76899Z" fill="black"/>
</svg>
